<svg width="41" height="34" viewBox="0 0 41 34" fill="none" xmlns="http://www.w3.org/2000/svg">
<path d="M36.1542 19.4212L36.158 19.4307L36.1622 19.4401L36.5701 20.3501L37.0204 21.8902C38.3438 26.4171 35.6747 31.1447 31.1148 32.3499C30.4156 32.5348 29.6953 32.6283 28.972 32.6283H20.1349L11.4796 32.4179C10.8845 32.4034 10.2926 32.3276 9.71308 32.1916C4.92994 31.0691 2.03994 26.1941 3.3507 21.4591L3.49656 20.9322C3.64487 20.3965 3.84155 19.8753 4.08416 19.3751L5.80194 15.8339L7.91811 12.1466L10.5202 8.8057L13.0267 5.81709C14.016 4.8932 15.0786 4.05115 16.2042 3.29922L16.3653 3.1916L16.6362 3.03984C18.8695 1.78872 21.5777 1.72573 23.8668 2.87166C24.2917 3.08434 24.696 3.33577 25.0746 3.62275L26.1311 4.42359L27.774 6.03482L29.7267 8.49977L32.3673 12.203L34.6193 16.0957L35.707 18.3031L36.1542 19.4212Z" fill="#BA9E55" stroke="black"/>
<path d="M23.1939 9.31382L23.4285 9.0047L23.1939 9.31382L23.8583 9.81818L24.8889 10.8304L26.1234 12.391L27.7985 14.7436L29.2263 17.2151L29.9137 18.6121L30.1961 19.3192L30.1999 19.3287L30.2041 19.338L30.459 19.9075L30.7448 20.8867C31.5586 23.6742 29.9153 26.5847 27.1081 27.3277C26.6768 27.4419 26.2325 27.4997 25.7863 27.4997H20.1584L14.6462 27.3655C14.2787 27.3566 13.9132 27.3097 13.5554 27.2256C10.6073 26.5328 8.82607 23.5282 9.63293 20.6093L9.72827 20.2644C9.81984 19.9332 9.94127 19.6109 10.0911 19.3016L11.1831 17.0472L12.5222 14.7106L14.1705 12.5912L15.7586 10.6949C16.3796 10.115 17.0464 9.5862 17.7526 9.11374L17.8491 9.04918L18.0154 8.9559C19.3859 8.18706 21.0485 8.14835 22.4533 8.85259C22.7138 8.98321 22.9617 9.13761 23.1939 9.31382Z" fill="#2E4CB7" stroke="black"/>
<circle cx="20.2263" cy="23.5527" r="9.07565" fill="#BA9E55" stroke="black"/>
<circle cx="20.2263" cy="21.9946" r="3.10304" fill="#2E4CB7" stroke="#2E4CB7"/>
</svg>
